PathFileType	4	(X/Y/Z)	/Users/mathieubourgeois/Desktop/Analyse/Traitement/Sujet_08/Data/Transformed_Sujet_08_velo_100.trc
DataRate	CameraRate	NumFrames	NumMarkers	Units	OrigDataRate	OrigDataStartFrame	OrigNumFrames
120.000000	120.000000	4	35	mm	120.000000	931	1862
Frame#	Time	RFHD			RANE			STRN			LANI			LKNE			T10			RHUM			RWRB			C7			LFWT			LTOE			RTOE			LWRA			LBWT			RBWT			RFWT			LKNI			RKNI			RKNE			LANE			RANI			LHEE			LHUM			LRAD			RRAD			RWRA			LWRB			LFHD			LBHD			RBHD			RSHO			LSHO			CLAV			LCAR			RCAR			
		X1	Y1	Z1	X2	Y2	Z2	X3	Y3	Z3	X4	Y4	Z4	X5	Y5	Z5	X6	Y6	Z6	X7	Y7	Z7	X8	Y8	Z8	X9	Y9	Z9	X10	Y10	Z10	X11	Y11	Z11	X12	Y12	Z12	X13	Y13	Z13	X14	Y14	Z14	X15	Y15	Z15	X16	Y16	Z16	X17	Y17	Z17	X18	Y18	Z18	X19	Y19	Z19	X20	Y20	Z20	X21	Y21	Z21	X22	Y22	Z22	X23	Y23	Z23	X24	Y24	Z24	X25	Y25	Z25	X26	Y26	Z26	X27	Y27	Z27	X28	Y28	Z28	X29	Y29	Z29	X30	Y30	Z30	X31	Y31	Z31	X32	Y32	Z32	X33	Y33	Z33	X34	Y34	Z34	X35	Y35	Z35	

932	7.758333333333333	275.5201416015625	1356.783813476562	86.65937805175776	-292.458984375	413.1079711914062	177.8999023437499	-48.15263366699219	1155.81494140625	17.635456085205	-27.17064476013183	477.190185546875	-77.69380950927737	41.31794738769533	885.9304809570312	-134.9198303222657	-192.3382568359375	1350.114868164062	28.77983093261708	135.9645233154297	1062.392578125	213.5368194580078	334.8550415039062	903.8883056640625	258.1483154296875	46.41566848754883	1422.364868164062	14.4548444747924	-258.705810546875	1106.5693359375	-88.01534271240244	133.0348205566406	383.3042602539062	-106.8915023803711	-196.9027557373047	235.6355133056641	136.1673583984374	353.9306640625	939.986572265625	-172.8490905761719	-396.3945617675781	1158.168579101562	-19.63418960571301	-388.7037963867188	1149.141845703125	112.4410934448241	-231.5157623291016	1084.705322265625	140.6906433105468	40.43379211425782	812.0810546875	-39.52146148681645	-48.11336517333986	668.6005249023438	89.49482727050777	-56.74463272094729	733.4821166992188	192.8236083984374	-57.0454635620117	468.9205322265625	-161.9862670898438	-258.5776062011719	411.89892578125	100.329002380371	-105.8986511230469	444.7312927246094	-122.492790222168	117.7198638916016	1053.698608398438	-190.4095458984375	160.3406524658203	1079.785400390625	-254.3230285644532	172.4646301269531	1083.054809570312	263.9728393554687	356.8954467773438	925.2440185546875	190.4426422119141	328.7253723144531	892.6786499023438	-225.265853881836	291.3796997070312	1350.028198242188	-41.55349731445317	215.0529479980469	1482.777709960938	-70.09234619140631	204.0960998535156	1506.977661132812	66.95378875732416	74.96795654296874	1354.363403320312	140.743911743164	59.81433105468751	1348.037475585938	-133.3778228759766	62.04636383056641	1285.941040039062	12.10111999511712	424.6126403808594	914.3092651367188	-252.2752532958984	434.9367370605468	910.4292602539062	277.0177612304688	
933	7.766666666666667	275.0782165527344	1356.738403320312	87.97803497314447	-294.1168823242188	429.9864196777344	178.8324890136718	-48.33155059814453	1155.43408203125	18.65852546691887	-24.25931358337401	459.4431762695312	-76.53859710693362	37.1821746826172	870.4735107421875	-135.6419219970704	-192.9851837158203	1349.351806640625	29.17314720153798	135.5436401367187	1062.046997070312	214.2503509521484	334.7181701660156	903.793212890625	258.4164733886719	45.71071243286133	1422.125122070312	15.86695671081535	-257.1986083984375	1104.87841796875	-88.61599731445322	137.0321655273438	366.4285278320312	-107.1810531616211	-201.3840484619141	251.4406433105469	136.3665008544921	353.9107971191406	940.032470703125	-172.5903930664062	-396.1294250488281	1156.478759765625	-20.48149681091321	-389.1941528320312	1148.143310546875	111.8358840942382	-231.8936157226563	1084.131225585938	140.435562133789	34.27885055541993	796.447265625	-38.68882751464848	-41.70921325683595	677.2236938476562	90.01895141601558	-49.1462097167969	741.566162109375	193.3834381103515	-54.28707504272459	451.0832214355469	-161.135971069336	-264.086669921875	428.5085144042969	101.1053619384765	-102.4098815917969	426.7124328613281	-121.0091400146485	117.636947631836	1053.759887695312	-189.8819580078125	160.3389739990235	1080.080322265625	-253.6812591552735	171.9369659423828	1082.619995117188	264.8102416992187	356.6625671386719	925.2962036132812	190.6984558105469	328.6317749023438	892.823486328125	-225.1124572753907	290.9758911132812	1350.20849609375	-40.21370697021489	214.5027008056641	1483.039794921875	-68.48264312744146	203.4041900634766	1506.864990234375	68.59173583984369	74.18566131591795	1354.183959960938	142.3462982177734	59.38126373291017	1347.955444335938	-132.1163024902345	61.55995178222656	1285.767944335938	13.48377513885491	424.4926147460938	914.5164794921875	-252.1414337158203	434.7940979003906	910.341064453125	277.1503295898438	
934	7.774999999999999	274.6175231933594	1356.794189453125	89.43447875976557	-294.6340026855469	447.1658935546875	179.8136901855468	-48.65314483642578	1155.140502929688	19.7549743652343	-22.16945457458495	442.0770568847656	-75.8576583862305	32.37385940551759	853.9075927734375	-136.5168151855469	-193.4544525146484	1348.716064453125	29.54690170288075	135.1200256347656	1061.621215820312	214.8862915039062	334.5765380859374	903.7083740234375	258.5932006835938	45.16376495361328	1421.954345703125	17.22087478637687	-254.8016052246094	1102.71435546875	-90.99545288085947	139.4348297119141	348.9064331054688	-107.6168670654297	-204.235107421875	267.9246520996094	136.6035919189453	353.8665466308594	940.059326171875	-172.4563293457031	-395.6912536621094	1154.993774414062	-21.56621551513684	-389.5893859863281	1147.319702148438	111.1034851074218	-232.1947784423828	1083.6201171875	140.1373138427734	22.59222412109375	780.3280639648438	-37.25785446166997	-35.16895675659181	686.7147216796875	90.49673461914058	-41.50673294067385	750.40478515625	193.9926147460937	-52.90424346923826	433.1502990722656	-160.1361083984375	-265.1891479492188	444.8571472167969	101.9338150024413	-100.1310729980469	408.9338073730469	-119.1336822509766	117.5538024902344	1053.742431640625	-189.3491821289063	160.2073059082032	1080.275390625	-253.0250701904297	171.4016571044922	1082.103881835938	265.5974426269531	356.4496765136719	925.3930053710938	190.8364105224609	328.5265808105469	892.9678344726562	-225.0798645019532	290.8214416503906	1350.577270507812	-38.81811523437505	214.0777130126953	1483.3369140625	-66.87263488769537	202.8172912597656	1506.861206054688	70.30294799804682	75.33609771728514	1354.166259765625	143.9769897460937	59.12704086303712	1347.870727539062	-130.7891998291016	61.20902252197266	1285.695922851562	14.8084697723388	424.3541564941407	914.6973876953125	-252.1291351318359	434.6751098632812	910.3812866210938	277.148193359375	
935	7.783333333333333	274.5035095214844	1356.941162109375	90.8409805297851	-294.0072937011719	464.4631958007812	180.862564086914	-48.69439697265625	1155.020385742188	20.94062423706047	-21.58086013793944	424.7907409667969	-75.23345184326175	26.49981117248537	837.509521484375	-137.4117584228516	-193.7261047363281	1348.258666992188	29.8271198272704	134.6790161132812	1061.295532226562	215.5086059570312	334.4534912109374	903.6394653320312	258.6836547851562	44.81744766235352	1421.864624023438	18.69184875488273	-253.5028686523438	1101.140380859375	-91.55233001708994	140.2479248046875	331.1154174804688	-107.9669647216797	-205.2152099609375	284.9542236328125	136.8696594238281	353.739013671875	940.0081787109375	-172.4979858398438	-395.1078491210938	1153.828735351562	-22.73104476928723	-389.8760375976562	1146.698608398438	110.2320022583007	-232.4010467529297	1083.226806640625	139.792022705078	14.68671226501465	763.4829711914062	-36.64308929443364	-27.67798042297364	697.4158935546875	90.86628723144527	-33.91308593750002	759.9295654296875	194.6243133544921	-52.91242218017576	415.3101501464844	-159.2028503417969	-265.1753845214844	461.8685913085938	102.8714218139648	-99.64351654052733	391.057373046875	-117.7137145996094	117.4288406372071	1053.712524414062	-188.8419494628907	160.1707611083985	1080.468872070312	-252.4763488769532	170.8361663818359	1081.594604492188	266.2710876464843	356.2364501953125	925.5230712890625	190.8873443603516	328.3540954589844	893.0130615234375	-225.1234130859375	290.8086547851562	1350.931274414062	-37.36663436889653	213.8456115722656	1483.669311523438	-65.23777008056646	202.3869018554688	1506.923950195312	72.03017425537104	74.88672637939452	1354.052124023438	145.6015624999999	59.053279876709	1347.818359375	-129.4716949462891	61.00382995605469	1285.639038085938	16.18529701232903	424.1994323730469	914.7354125976562	-252.2613830566406	434.5881958007812	910.4093627929688	277.0440673828125	
